<?xml version="1.0" encoding="UTF-8" standalone="no"?>
<svg
   xmlns:dc="http://purl.org/dc/elements/1.1/"
   xmlns:cc="http://creativecommons.org/ns#"
   xmlns:rdf="http://www.w3.org/1999/02/22-rdf-syntax-ns#"
   xmlns:svg="http://www.w3.org/2000/svg"
   xmlns="http://www.w3.org/2000/svg"
   viewBox="0 0 286.66666 286.66666"
   height="286.66666"
   width="286.66666"
   xml:space="preserve"
   id="svg2"
   version="1.1"><metadata
     id="metadata8"><rdf:RDF><cc:Work
         rdf:about=""><dc:format>image/svg+xml</dc:format><dc:type
           rdf:resource="http://purl.org/dc/dcmitype/StillImage" /></cc:Work></rdf:RDF></metadata><defs
     id="defs6" /><g
     transform="matrix(1.3333333,0,0,-1.3333333,0,286.66667)"
     id="g10"><g
       transform="scale(0.1)"
       id="g12"><path
         id="path14"
         style="fill:#c11f25;fill-opacity:1;fill-rule:evenodd;stroke:none"
         d="m 1116.12,1201.45 268.61,369.72 c 14.7,20.23 26.35,40.37 44.58,54.33 18.26,13.97 41.36,21.48 69.31,22.5 26.56,0.96 50.88,-5.84 72.89,-20.37 42.76,-28.25 209.22,-207.61 356.82,-367.99 -38.37,178.31 -130.9,335.66 -258.99,454.72 -163.62,152.09 -385.28,241.77 -626.18,232.99 -240.91,-8.8 -455.445,-114.41 -607.523,-278.01 -152.09,-163.62 -241.774,-385.27 -232.989,-626.19 8.801,-240.888 114.407,-455.439 278.016,-607.521 163.617,-152.09 385.27,-241.77 626.186,-232.981 240.89,8.793 455.44,114.403 607.52,278.012 106.19,114.238 181.95,256.781 215.02,414.422 57.87,-60.73 114.41,-119.941 162.3,-170.062 C 2042.38,581.859 1963.6,452.031 1862.35,343.121 1675.05,141.621 1410.83,11.5508 1114.21,0.730469 817.59,-10.1016 544.605,100.352 343.121,287.648 141.625,474.949 11.5547,739.172 0.730469,1035.78 -10.0977,1332.41 100.359,1605.39 287.66,1806.88 c 187.297,201.5 451.492,331.57 748.13,342.39 296.6,10.84 569.61,-99.63 771.09,-286.93 201.5,-187.3 331.57,-451.49 342.39,-748.13 1.13,-30.99 0.95,-61.72 -0.53,-92.14 l 0.01,-0.01 -0.01,-0.03 c -3.4,-70.721 -13.71,-139.76 -30.24,-206.421 -199.69,216.821 -403.66,427.411 -604.89,642.751 L 1239.5,1046.28 C 1184.02,962.871 1105.76,926.332 1024.79,998.012 936.711,1086.06 840.984,1200.07 751.574,1293.76 L 444.457,611.52 c -53.133,68.55 -93.32,143.421 -111.555,208.781 L 604.137,1463.4 c 12.996,30.81 23.203,56.65 44.429,72.75 21.219,16.11 45.157,26.11 71.735,25.66 62.586,-1.09 75.387,-22.94 118.144,-68.36 l 277.675,-292" /></g></g></svg>