<?xml version="1.0" encoding="UTF-8" standalone="no"?>
<svg
   xmlns:dc="http://purl.org/dc/elements/1.1/"
   xmlns:cc="http://creativecommons.org/ns#"
   xmlns:rdf="http://www.w3.org/1999/02/22-rdf-syntax-ns#"
   xmlns:svg="http://www.w3.org/2000/svg"
   xmlns="http://www.w3.org/2000/svg"
   viewBox="0 0 436.23999 243.75999"
   height="243.75999"
   width="436.23999"
   xml:space="preserve"
   id="svg2"
   version="1.1"><metadata
     id="metadata8"><rdf:RDF><cc:Work
         rdf:about=""><dc:format>image/svg+xml</dc:format><dc:type
           rdf:resource="http://purl.org/dc/dcmitype/StillImage" /></cc:Work></rdf:RDF></metadata><defs
     id="defs6" /><g
     transform="matrix(1.3333333,0,0,-1.3333333,0,243.76)"
     id="g10"><g
       transform="scale(0.1)"
       id="g12"><path
         id="path14"
         style="fill:#000001;fill-opacity:1;fill-rule:evenodd;stroke:none"
         d="m 257.051,153.879 c 0,-14.488 -2.492,-28.199 -7.461,-41.141 -4.977,-12.9177 -11.871,-24.1482 -20.676,-33.6677 -8.812,-9.5195 -19.398,-17.0508 -31.758,-22.5898 -12.367,-5.5391 -25.933,-8.3203 -40.711,-8.3203 -14.777,0 -28.418,2.8515 -40.925,8.5312 -12.5,5.6875 -23.2309,13.3594 -32.1802,23.0195 -8.9531,9.6602 -15.914,20.9611 -20.8906,33.8911 -4.9726,12.929 -7.4609,26.636 -7.4609,41.128 0,14.5 2.4883,28.211 7.4609,41.141 4.9766,12.93 11.8672,24.149 20.6719,33.668 8.8125,9.531 19.3989,17.063 31.7619,22.602 12.359,5.539 25.933,8.308 40.711,8.308 14.777,0 28.414,-2.84 40.922,-8.527 12.5,-5.684 23.23,-13.352 32.179,-23.012 8.953,-9.672 15.918,-20.961 20.895,-33.89 4.969,-12.93 7.461,-26.649 7.461,-41.141 z m 54.988,0.851 c 0,21.032 -3.84,40.93 -11.512,59.68 -7.672,18.762 -18.328,35.102 -31.968,49.02 -13.645,13.929 -29.985,24.941 -49.024,33.039 -19.043,8.101 -40.074,12.152 -63.09,12.152 -23.019,0 -44.05,-4.121 -63.0895,-12.359 C 74.3164,288.02 57.832,276.859 43.9102,262.789 29.9805,248.73 19.1836,232.32 11.5078,213.559 3.83594,194.801 0,174.91 0,153.879 0,132.852 3.83594,112.961 11.5078,94.1992 19.1836,75.4492 29.8398,59.1016 43.4805,45.1797 57.125,31.2617 73.4648,20.2383 92.5039,12.1484 111.543,4.03906 132.574,0 155.594,0 c 23.015,0 44.047,4.12109 63.09,12.3594 19.035,8.2422 35.519,19.4023 49.445,33.4609 13.926,14.0703 24.726,30.4805 32.398,49.2383 7.672,18.7504 11.512,38.6404 11.512,59.6714 v 0" /><path
         id="path16"
         style="fill:#000001;fill-opacity:1;fill-rule:evenodd;stroke:none"
         d="m 553.305,202.051 c 0,-16.199 -5.754,-29.199 -17.262,-39 -11.508,-9.813 -27.207,-14.711 -47.105,-14.711 h -60.954 v 107.422 h 60.954 c 19.609,0 35.242,-4.473 46.89,-13.434 11.652,-8.949 17.477,-22.379 17.477,-40.277 z m 53.289,1.281 c 0,15.348 -2.633,29.129 -7.887,41.348 -5.262,12.218 -12.789,22.73 -22.594,31.539 -9.8,8.812 -21.738,15.562 -35.808,20.25 -14.063,4.691 -29.77,7.043 -47.102,7.043 H 375.551 V 5.10938 h 52.433 V 101.02 h 59.25 c 16.485,0 31.969,2.21 46.461,6.609 14.496,4.402 27.145,10.871 37.942,19.402 10.801,8.52 19.324,19.18 25.578,31.969 6.254,12.789 9.379,27.559 9.379,44.332 v 0" /><path
         id="path18"
         style="fill:#000001;fill-opacity:1;fill-rule:evenodd;stroke:none"
         d="M 881.543,303.512 H 660.305 V 5.10938 H 883.676 V 52 H 712.738 v 80.141 h 149.621 v 46.89 H 712.738 v 77.59 h 168.805 v 46.891" /><path
         id="path20"
         style="fill:#000001;fill-opacity:1;fill-rule:evenodd;stroke:none"
         d="M 1154.36,97.1914 994.504,303.512 H 945.91 V 5.10938 h 51.582 V 217.398 L 1162.03,5.10938 h 43.91 V 303.512 h -51.58 V 97.1914" /><path
         id="path22"
         style="fill:#000001;fill-opacity:1;fill-rule:evenodd;stroke:none"
         d="M 1629.84,246.809 V 5.10938 h 33.67 V 303.512 h -34.1 l -108.7,-162.84 -108.7,162.84 h -34.1 V 5.10938 h 32.82 V 246.391 l 108.7,-159.4301 h 1.71 l 108.7,159.8481" /><path
         id="path24"
         style="fill:#000001;fill-opacity:1;fill-rule:evenodd;stroke:none"
         d="m 1963.61,303.512 h -215.7 V 5.10938 h 217.83 V 35.8008 H 1781.59 V 140.238 h 162.84 v 30.692 h -162.84 v 101.879 h 182.02 v 30.703" /><path
         id="path26"
         style="fill:#000001;fill-opacity:1;fill-rule:evenodd;stroke:none"
         d="m 2146.48,272.391 h 100.18 v 31.121 h -234.45 v -31.121 h 100.17 V 5.10938 h 34.1 V 272.391" /><path
         id="path28"
         style="fill:#000001;fill-opacity:1;fill-rule:evenodd;stroke:none"
         d="m 2511.8,213.129 c 0,-9.66 -1.92,-18.328 -5.76,-26 -3.83,-7.668 -9.16,-14.129 -15.98,-19.399 -6.82,-5.25 -14.92,-9.3 -24.3,-12.152 -9.38,-2.84 -19.61,-4.258 -30.69,-4.258 h -91.65 v 121.071 h 92.08 c 24.16,0 42.91,-5.192 56.27,-15.563 13.35,-10.367 20.03,-24.937 20.03,-43.699 z M 2556.56,5.10938 2464.91,127.031 c 11.65,1.989 22.45,5.399 32.4,10.231 9.94,4.828 18.54,10.867 25.79,18.109 7.24,7.25 12.86,15.777 16.83,25.578 3.98,9.801 5.98,20.961 5.98,33.461 0,13.36 -2.56,25.512 -7.68,36.449 -5.11,10.942 -12.36,20.321 -21.74,28.141 -9.38,7.809 -20.68,13.852 -33.89,18.109 -13.21,4.27 -28.06,6.403 -44.54,6.403 H 2309.75 V 5.10938 h 33.67 V 121.059 h 85.26 L 2515.21,5.10938 h 41.35 v 0" /><path
         id="path30"
         style="fill:#000001;fill-opacity:1;fill-rule:evenodd;stroke:none"
         d="M 2620.93,303.512 V 5.10938 h 33.67 V 303.512 h -33.67" /><path
         id="path32"
         style="fill:#000001;fill-opacity:1;fill-rule:evenodd;stroke:none"
         d="m 3008.83,52.4297 -22.16,21.7422 c -14.21,-13.6406 -28.7,-24.2305 -43.48,-31.7617 -14.78,-7.5313 -32.4,-11.2891 -52.86,-11.2891 -16.48,0 -31.76,3.1875 -45.82,9.5898 -14.07,6.3907 -26.29,15.1289 -36.66,26.211 -10.38,11.0781 -18.48,24.1562 -24.3,39.2191 -5.83,15.058 -8.74,31.257 -8.74,48.589 0,17.34 2.91,33.461 8.74,48.391 5.82,14.91 13.92,27.918 24.3,39 10.37,11.078 22.59,19.75 36.66,26.008 14.06,6.242 29.34,9.371 45.82,9.371 20.46,0 38.01,-3.84 52.64,-11.512 14.64,-7.668 28.35,-17.468 41.14,-29.41 l 23.02,24.723 c -7.39,7.109 -15.06,13.57 -23.02,19.398 -7.96,5.821 -16.62,10.801 -26,14.922 -9.38,4.117 -19.54,7.32 -30.48,9.59 -10.94,2.269 -23.23,3.41 -36.87,3.41 -21.89,0 -42.06,-4.051 -60.53,-12.152 -18.48,-8.098 -34.39,-19.18 -47.75,-33.25 -13.35,-14.059 -23.8,-30.481 -31.33,-49.231 -7.53,-18.758 -11.3,-38.797 -11.3,-60.109 0,-21.598 3.77,-41.777 11.3,-60.5274 7.53,-18.75 17.98,-35.0313 31.33,-48.8125 13.36,-13.7774 29.13,-24.6485 47.32,-32.6094 C 2847.99,3.96875 2867.88,0 2889.48,0 c 13.64,0 26,1.28125 37.08,3.82813 11.09,2.5625 21.46,6.12109 31.12,10.66017 9.66,4.5508 18.68,10.0234 27.07,16.4101 8.39,6.4024 16.41,13.5704 24.08,21.5313" /><path
         id="path34"
         style="fill:#000001;fill-opacity:1;fill-rule:evenodd;stroke:none"
         d="m 3093.66,228.91 c 0,6.82 1.5,13.211 4.48,19.18 2.98,5.969 7.25,11.082 12.79,15.34 5.54,4.269 12.22,7.679 20.03,10.23 7.82,2.559 16.55,3.84 26.22,3.84 15.34,0 30.05,-2.559 44.12,-7.672 14.06,-5.117 28.06,-13.359 41.98,-24.719 l 19.62,26 c -15.35,12.223 -31.19,21.391 -47.54,27.493 -16.34,6.109 -35.45,9.168 -57.33,9.168 -14.21,0 -27.28,-2.071 -39.22,-6.18 -11.94,-4.129 -22.31,-9.809 -31.12,-17.059 -8.8,-7.242 -15.63,-15.84 -20.46,-25.781 -4.83,-9.949 -7.24,-20.891 -7.24,-32.828 0,-12.5 1.99,-23.301 5.96,-32.391 3.99,-9.101 10.09,-17.062 18.33,-23.883 8.25,-6.808 18.69,-12.636 31.34,-17.468 12.64,-4.828 27.49,-9.102 44.54,-12.789 15.63,-3.411 28.49,-6.961 38.58,-10.661 10.09,-3.691 17.97,-7.82 23.66,-12.359 5.68,-4.551 9.66,-9.59 11.93,-15.133 2.27,-5.5388 3.41,-11.8669 3.41,-18.9685 0,-15.3476 -6.03,-27.7109 -18.11,-37.0898 -12.08,-9.3789 -28.21,-14.0586 -48.39,-14.0586 -20.74,0 -39.07,3.4687 -54.99,10.4375 -15.91,6.9609 -31.69,17.543 -47.31,31.7617 l -20.89,-24.7305 c 17.9,-16.1992 36.73,-28.1992 56.48,-36.0195 19.75,-7.8203 41.57,-11.718737 65.43,-11.718737 14.78,0 28.43,1.988277 40.93,5.968747 12.5,3.98049 23.23,9.66019 32.19,17.05079 8.95,7.3906 15.98,16.3398 21.09,26.8477 5.12,10.5195 7.68,22.1718 7.68,34.9609 0,23.0193 -7.89,41.0583 -23.66,54.1403 -15.78,13.071 -40.29,23.301 -73.54,30.692 -16.48,3.41 -29.97,7.027 -40.49,10.867 -10.51,3.84 -18.76,8.09 -24.73,12.793 -5.96,4.68 -10.08,9.867 -12.36,15.547 -2.28,5.691 -3.41,12.082 -3.41,19.191" /><path
         id="path36"
         style="fill:#c11f25;fill-opacity:1;fill-rule:evenodd;stroke:none"
         d="m 1660.71,1256.64 161.85,222.77 c 8.86,12.19 15.87,24.33 26.86,32.74 11,8.42 24.92,12.94 41.76,13.56 16.01,0.58 30.66,-3.52 43.92,-12.28 25.77,-17.02 126.07,-125.09 215.01,-221.73 -23.12,107.44 -78.87,202.25 -156.06,273.99 -98.59,91.65 -232.15,145.69 -377.31,140.39 -145.16,-5.3 -274.43,-68.94 -366.06,-167.52 -91.64,-98.59 -145.68,-232.14 -140.39,-377.31 5.3,-145.15 68.94,-274.426 167.52,-366.059 98.59,-91.64 232.15,-145.679 377.31,-140.39 145.15,5.301 274.43,68.937 366.06,167.519 63.99,68.836 109.64,154.727 129.57,249.72 34.87,-36.6 68.93,-72.282 97.79,-102.477 -29.71,-86.262 -77.18,-164.493 -138.19,-230.122 -112.86,-121.41 -272.07,-199.781 -450.79,-206.312 -178.74,-6.52 -343.22,60.043 -464.63,172.891 -121.41,112.859 -199.785,272.066 -206.309,450.79 -6.519,178.74 60.029,343.23 172.889,464.63 112.86,121.41 272.05,199.79 450.79,206.31 178.72,6.53 343.22,-60.04 464.63,-172.89 121.41,-112.86 199.79,-272.05 206.31,-450.79 0.68,-18.67 0.57,-37.19 -0.32,-55.52 v 0 -0.02 c -2.05,-42.62 -8.26,-84.21 -18.23,-124.39 -120.32,130.65 -243.22,257.54 -364.47,387.3 l -165.17,-248.3 c -33.43,-50.26 -80.58,-72.28 -129.37,-29.09 -53.08,53.06 -110.76,121.76 -164.63,178.21 L 1255.99,901.172 c -32.01,41.308 -56.23,86.418 -67.22,125.798 l 163.44,387.51 c 7.83,18.56 13.98,34.13 26.77,43.83 12.79,9.71 27.21,15.74 43.22,15.46 37.72,-0.65 45.43,-13.82 71.19,-41.19 l 167.32,-175.94" /></g></g></svg>